<mxfile host="app.diagrams.net" modified="2024-04-13T17:39:27.810Z" agent="Mozilla/5.0 (Windows NT 10.0; Win64; x64) AppleWebKit/537.36 (KHTML, like Gecko) Chrome/123.0.0.0 Safari/537.36" etag="wRCbToH9mgrj1eDZ5rWx" version="24.2.3" type="device">
  <diagram name="Stránka-1" id="1j1cnHEiYCNuMuImM9Jw">
    <mxGraphModel dx="1723" dy="743" grid="1" gridSize="10" guides="1" tooltips="1" connect="1" arrows="1" fold="1" page="1" pageScale="1" pageWidth="850" pageHeight="1100" math="0" shadow="0">
      <root>
        <mxCell id="0" />
        <mxCell id="1" parent="0" />
        <mxCell id="CJf2n00hC5O3cPvHsDoq-4" style="edgeStyle=orthogonalEdgeStyle;rounded=0;orthogonalLoop=1;jettySize=auto;html=1;entryX=0.5;entryY=0;entryDx=0;entryDy=0;" parent="1" source="CJf2n00hC5O3cPvHsDoq-1" target="CJf2n00hC5O3cPvHsDoq-2" edge="1">
          <mxGeometry relative="1" as="geometry" />
        </mxCell>
        <mxCell id="CJf2n00hC5O3cPvHsDoq-1" value="&lt;font style=&quot;font-size: 18px;&quot;&gt;Hlavní postava&lt;/font&gt;" style="rounded=0;whiteSpace=wrap;html=1;" parent="1" vertex="1">
          <mxGeometry x="360" y="80" width="120" height="60" as="geometry" />
        </mxCell>
        <mxCell id="CJf2n00hC5O3cPvHsDoq-7" style="edgeStyle=orthogonalEdgeStyle;rounded=0;orthogonalLoop=1;jettySize=auto;html=1;entryX=0.5;entryY=0;entryDx=0;entryDy=0;" parent="1" source="CJf2n00hC5O3cPvHsDoq-2" target="CJf2n00hC5O3cPvHsDoq-5" edge="1">
          <mxGeometry relative="1" as="geometry" />
        </mxCell>
        <mxCell id="CJf2n00hC5O3cPvHsDoq-30" style="edgeStyle=orthogonalEdgeStyle;rounded=0;orthogonalLoop=1;jettySize=auto;html=1;entryX=0;entryY=0.5;entryDx=0;entryDy=0;" parent="1" source="CJf2n00hC5O3cPvHsDoq-2" target="CJf2n00hC5O3cPvHsDoq-6" edge="1">
          <mxGeometry relative="1" as="geometry" />
        </mxCell>
        <mxCell id="CJf2n00hC5O3cPvHsDoq-2" value="&lt;font style=&quot;font-size: 18px;&quot;&gt;Komponenty&lt;/font&gt;" style="rounded=0;whiteSpace=wrap;html=1;" parent="1" vertex="1">
          <mxGeometry x="360" y="180" width="120" height="60" as="geometry" />
        </mxCell>
        <mxCell id="CJf2n00hC5O3cPvHsDoq-15" style="edgeStyle=orthogonalEdgeStyle;rounded=0;orthogonalLoop=1;jettySize=auto;html=1;entryX=1;entryY=0.5;entryDx=0;entryDy=0;" parent="1" source="CJf2n00hC5O3cPvHsDoq-5" target="CJf2n00hC5O3cPvHsDoq-9" edge="1">
          <mxGeometry relative="1" as="geometry">
            <Array as="points">
              <mxPoint x="290" y="380" />
            </Array>
          </mxGeometry>
        </mxCell>
        <mxCell id="CJf2n00hC5O3cPvHsDoq-16" style="edgeStyle=orthogonalEdgeStyle;rounded=0;orthogonalLoop=1;jettySize=auto;html=1;entryX=1;entryY=0.5;entryDx=0;entryDy=0;" parent="1" source="CJf2n00hC5O3cPvHsDoq-5" target="CJf2n00hC5O3cPvHsDoq-10" edge="1">
          <mxGeometry relative="1" as="geometry">
            <Array as="points">
              <mxPoint x="290" y="450" />
            </Array>
          </mxGeometry>
        </mxCell>
        <mxCell id="CJf2n00hC5O3cPvHsDoq-17" style="edgeStyle=orthogonalEdgeStyle;rounded=0;orthogonalLoop=1;jettySize=auto;html=1;entryX=1;entryY=0.5;entryDx=0;entryDy=0;" parent="1" source="CJf2n00hC5O3cPvHsDoq-5" target="CJf2n00hC5O3cPvHsDoq-11" edge="1">
          <mxGeometry relative="1" as="geometry">
            <Array as="points">
              <mxPoint x="290" y="520" />
            </Array>
          </mxGeometry>
        </mxCell>
        <mxCell id="CJf2n00hC5O3cPvHsDoq-18" style="edgeStyle=orthogonalEdgeStyle;rounded=0;orthogonalLoop=1;jettySize=auto;html=1;entryX=1;entryY=0.5;entryDx=0;entryDy=0;" parent="1" source="CJf2n00hC5O3cPvHsDoq-5" target="CJf2n00hC5O3cPvHsDoq-12" edge="1">
          <mxGeometry relative="1" as="geometry">
            <Array as="points">
              <mxPoint x="290" y="590" />
            </Array>
          </mxGeometry>
        </mxCell>
        <mxCell id="CJf2n00hC5O3cPvHsDoq-19" style="edgeStyle=orthogonalEdgeStyle;rounded=0;orthogonalLoop=1;jettySize=auto;html=1;entryX=1;entryY=0.5;entryDx=0;entryDy=0;" parent="1" source="CJf2n00hC5O3cPvHsDoq-5" target="CJf2n00hC5O3cPvHsDoq-13" edge="1">
          <mxGeometry relative="1" as="geometry">
            <Array as="points">
              <mxPoint x="290" y="660" />
            </Array>
          </mxGeometry>
        </mxCell>
        <mxCell id="CJf2n00hC5O3cPvHsDoq-20" style="edgeStyle=orthogonalEdgeStyle;rounded=0;orthogonalLoop=1;jettySize=auto;html=1;entryX=1;entryY=0.5;entryDx=0;entryDy=0;" parent="1" source="CJf2n00hC5O3cPvHsDoq-5" target="CJf2n00hC5O3cPvHsDoq-14" edge="1">
          <mxGeometry relative="1" as="geometry">
            <Array as="points">
              <mxPoint x="290" y="730" />
            </Array>
          </mxGeometry>
        </mxCell>
        <mxCell id="CJf2n00hC5O3cPvHsDoq-5" value="&lt;font style=&quot;font-size: 18px;&quot;&gt;Unity komponenty&lt;/font&gt;" style="rounded=0;whiteSpace=wrap;html=1;fillColor=#1FFF35;" parent="1" vertex="1">
          <mxGeometry x="230" y="290" width="120" height="60" as="geometry" />
        </mxCell>
        <mxCell id="CJf2n00hC5O3cPvHsDoq-32" style="edgeStyle=orthogonalEdgeStyle;rounded=0;orthogonalLoop=1;jettySize=auto;html=1;entryX=1;entryY=0.5;entryDx=0;entryDy=0;" parent="1" source="CJf2n00hC5O3cPvHsDoq-6" target="CJf2n00hC5O3cPvHsDoq-28" edge="1">
          <mxGeometry relative="1" as="geometry" />
        </mxCell>
        <mxCell id="CJf2n00hC5O3cPvHsDoq-33" style="edgeStyle=orthogonalEdgeStyle;rounded=0;orthogonalLoop=1;jettySize=auto;html=1;entryX=1;entryY=0.5;entryDx=0;entryDy=0;" parent="1" source="CJf2n00hC5O3cPvHsDoq-6" target="CJf2n00hC5O3cPvHsDoq-26" edge="1">
          <mxGeometry relative="1" as="geometry" />
        </mxCell>
        <mxCell id="CJf2n00hC5O3cPvHsDoq-34" style="edgeStyle=orthogonalEdgeStyle;rounded=0;orthogonalLoop=1;jettySize=auto;html=1;entryX=1;entryY=0.5;entryDx=0;entryDy=0;" parent="1" source="CJf2n00hC5O3cPvHsDoq-6" target="CJf2n00hC5O3cPvHsDoq-25" edge="1">
          <mxGeometry relative="1" as="geometry" />
        </mxCell>
        <mxCell id="CJf2n00hC5O3cPvHsDoq-35" style="edgeStyle=orthogonalEdgeStyle;rounded=0;orthogonalLoop=1;jettySize=auto;html=1;entryX=1;entryY=0.5;entryDx=0;entryDy=0;" parent="1" source="CJf2n00hC5O3cPvHsDoq-6" target="CJf2n00hC5O3cPvHsDoq-24" edge="1">
          <mxGeometry relative="1" as="geometry" />
        </mxCell>
        <mxCell id="CJf2n00hC5O3cPvHsDoq-36" style="edgeStyle=orthogonalEdgeStyle;rounded=0;orthogonalLoop=1;jettySize=auto;html=1;entryX=1;entryY=0.5;entryDx=0;entryDy=0;" parent="1" source="CJf2n00hC5O3cPvHsDoq-6" target="CJf2n00hC5O3cPvHsDoq-27" edge="1">
          <mxGeometry relative="1" as="geometry" />
        </mxCell>
        <mxCell id="CJf2n00hC5O3cPvHsDoq-37" style="edgeStyle=orthogonalEdgeStyle;rounded=0;orthogonalLoop=1;jettySize=auto;html=1;entryX=0;entryY=0.5;entryDx=0;entryDy=0;" parent="1" source="CJf2n00hC5O3cPvHsDoq-6" target="CJf2n00hC5O3cPvHsDoq-31" edge="1">
          <mxGeometry relative="1" as="geometry" />
        </mxCell>
        <mxCell id="CJf2n00hC5O3cPvHsDoq-38" style="edgeStyle=orthogonalEdgeStyle;rounded=0;orthogonalLoop=1;jettySize=auto;html=1;entryX=0;entryY=0.5;entryDx=0;entryDy=0;" parent="1" source="CJf2n00hC5O3cPvHsDoq-6" target="CJf2n00hC5O3cPvHsDoq-21" edge="1">
          <mxGeometry relative="1" as="geometry" />
        </mxCell>
        <mxCell id="CJf2n00hC5O3cPvHsDoq-39" style="edgeStyle=orthogonalEdgeStyle;rounded=0;orthogonalLoop=1;jettySize=auto;html=1;entryX=0;entryY=0.5;entryDx=0;entryDy=0;" parent="1" source="CJf2n00hC5O3cPvHsDoq-6" target="CJf2n00hC5O3cPvHsDoq-22" edge="1">
          <mxGeometry relative="1" as="geometry" />
        </mxCell>
        <mxCell id="CJf2n00hC5O3cPvHsDoq-40" style="edgeStyle=orthogonalEdgeStyle;rounded=0;orthogonalLoop=1;jettySize=auto;html=1;entryX=0;entryY=0.5;entryDx=0;entryDy=0;" parent="1" source="CJf2n00hC5O3cPvHsDoq-6" target="CJf2n00hC5O3cPvHsDoq-23" edge="1">
          <mxGeometry relative="1" as="geometry" />
        </mxCell>
        <mxCell id="CJf2n00hC5O3cPvHsDoq-9" value="&lt;font style=&quot;font-size: 18px;&quot;&gt;Transform&lt;/font&gt;" style="rounded=0;whiteSpace=wrap;html=1;" parent="1" vertex="1">
          <mxGeometry x="60" y="350" width="120" height="60" as="geometry" />
        </mxCell>
        <mxCell id="CJf2n00hC5O3cPvHsDoq-10" value="&lt;font style=&quot;font-size: 18px;&quot;&gt;Rigidbody 2D&lt;/font&gt;" style="rounded=0;whiteSpace=wrap;html=1;" parent="1" vertex="1">
          <mxGeometry x="60" y="420" width="120" height="60" as="geometry" />
        </mxCell>
        <mxCell id="CJf2n00hC5O3cPvHsDoq-11" value="&lt;font style=&quot;font-size: 18px;&quot;&gt;Box Collider 2D&lt;/font&gt;" style="rounded=0;whiteSpace=wrap;html=1;" parent="1" vertex="1">
          <mxGeometry x="60" y="490" width="120" height="60" as="geometry" />
        </mxCell>
        <mxCell id="CJf2n00hC5O3cPvHsDoq-12" value="&lt;font style=&quot;font-size: 18px;&quot;&gt;Animator&lt;/font&gt;" style="rounded=0;whiteSpace=wrap;html=1;" parent="1" vertex="1">
          <mxGeometry x="60" y="560" width="120" height="60" as="geometry" />
        </mxCell>
        <mxCell id="CJf2n00hC5O3cPvHsDoq-13" value="&lt;font style=&quot;font-size: 18px;&quot;&gt;Sprite Renderer&lt;/font&gt;" style="rounded=0;whiteSpace=wrap;html=1;" parent="1" vertex="1">
          <mxGeometry x="60" y="630" width="120" height="60" as="geometry" />
        </mxCell>
        <mxCell id="CJf2n00hC5O3cPvHsDoq-14" value="&lt;font style=&quot;font-size: 18px;&quot;&gt;Sorting Group&lt;/font&gt;" style="rounded=0;whiteSpace=wrap;html=1;" parent="1" vertex="1">
          <mxGeometry x="60" y="700" width="120" height="60" as="geometry" />
        </mxCell>
        <mxCell id="CJf2n00hC5O3cPvHsDoq-21" value="&lt;font style=&quot;font-size: 18px;&quot;&gt;Health.cs&lt;/font&gt;" style="rounded=0;whiteSpace=wrap;html=1;" parent="1" vertex="1">
          <mxGeometry x="700" y="450" width="140" height="70" as="geometry" />
        </mxCell>
        <mxCell id="CJf2n00hC5O3cPvHsDoq-22" value="&lt;font style=&quot;font-size: 18px;&quot;&gt;PlayerCombat.cs&lt;/font&gt;" style="rounded=0;whiteSpace=wrap;html=1;" parent="1" vertex="1">
          <mxGeometry x="700" y="370" width="140" height="70" as="geometry" />
        </mxCell>
        <mxCell id="CJf2n00hC5O3cPvHsDoq-23" value="&lt;font style=&quot;font-size: 16px;&quot;&gt;PlayerMovement.cs&lt;/font&gt;" style="rounded=0;whiteSpace=wrap;html=1;" parent="1" vertex="1">
          <mxGeometry x="700" y="285" width="140" height="70" as="geometry" />
        </mxCell>
        <mxCell id="CJf2n00hC5O3cPvHsDoq-24" value="&lt;font style=&quot;font-size: 18px;&quot;&gt;FearOfUnknown.cs&lt;/font&gt;" style="rounded=0;whiteSpace=wrap;html=1;" parent="1" vertex="1">
          <mxGeometry x="430" y="370" width="160" height="70" as="geometry" />
        </mxCell>
        <mxCell id="CJf2n00hC5O3cPvHsDoq-25" value="&lt;font style=&quot;font-size: 18px;&quot;&gt;FearOfDark.cs&lt;/font&gt;" style="rounded=0;whiteSpace=wrap;html=1;fillColor=#FF9999;" parent="1" vertex="1">
          <mxGeometry x="430" y="450" width="160" height="70" as="geometry" />
        </mxCell>
        <mxCell id="CJf2n00hC5O3cPvHsDoq-26" value="&lt;font style=&quot;font-size: 18px;&quot;&gt;FearOfHeights.cs&lt;/font&gt;" style="rounded=0;whiteSpace=wrap;html=1;" parent="1" vertex="1">
          <mxGeometry x="430" y="530" width="160" height="70" as="geometry" />
        </mxCell>
        <mxCell id="CJf2n00hC5O3cPvHsDoq-27" value="&lt;font style=&quot;font-size: 18px;&quot;&gt;FearOfDeath.cs&lt;/font&gt;" style="rounded=0;whiteSpace=wrap;html=1;" parent="1" vertex="1">
          <mxGeometry x="430" y="285" width="160" height="70" as="geometry" />
        </mxCell>
        <mxCell id="CJf2n00hC5O3cPvHsDoq-28" value="&lt;font style=&quot;font-size: 18px;&quot;&gt;FearOfWater.cs&lt;/font&gt;" style="rounded=0;whiteSpace=wrap;html=1;" parent="1" vertex="1">
          <mxGeometry x="430" y="610" width="160" height="70" as="geometry" />
        </mxCell>
        <mxCell id="CJf2n00hC5O3cPvHsDoq-31" value="&lt;font style=&quot;font-size: 18px;&quot;&gt;PlayerAudio.cs&lt;/font&gt;" style="rounded=0;whiteSpace=wrap;html=1;" parent="1" vertex="1">
          <mxGeometry x="700" y="530" width="140" height="70" as="geometry" />
        </mxCell>
        <mxCell id="CJf2n00hC5O3cPvHsDoq-6" value="&lt;font style=&quot;font-size: 18px;&quot;&gt;Skripty&lt;/font&gt;" style="rounded=0;whiteSpace=wrap;html=1;fillColor=#1FFF35;" parent="1" vertex="1">
          <mxGeometry x="590" y="180" width="120" height="60" as="geometry" />
        </mxCell>
      </root>
    </mxGraphModel>
  </diagram>
</mxfile>
